<?xml version="1.0" standalone="no"?><!DOCTYPE svg PUBLIC "-//W3C//DTD SVG 1.1//EN" "http://www.w3.org/Graphics/SVG/1.1/DTD/svg11.dtd"><svg t="1590565544531" class="icon" viewBox="0 0 1024 1024" version="1.1" xmlns="http://www.w3.org/2000/svg" p-id="4248" xmlns:xlink="http://www.w3.org/1999/xlink" width="32" height="32"><defs><style type="text/css"></style></defs><path d="M517.44 393.92c21.12 13.28 58.4 36.32 85.6 47.68 52.96 21.92 216 8 290.24 27.36 72.32 18.72 130.72 22.4 130.72 22.4l-103.84-172.32S1032.8 150.08 1018.88 153.6c-13.76 3.52-66.24 12-129.76-7.68-45.6-14.08-139.52-15.52-223.52-13.76-53.28 1.12-118.24-45.92-148-69.44V4.64h-84.16v897.12H517.44V393.92z" p-id="4249" fill="#d81e06"></path><path d="M635.36 705.76v63.2c120 16.16 202.88 50.4 202.88 90.4 0 55.36-159.04 100.16-355.2 100.16s-355.04-44.8-355.04-100.16c0-39.04 79.68-72.8 195.68-89.44v-63.36C135.2 728.48 0 788.64 0 859.2c0 89.6 216.16 162.08 483.04 162.08 266.88 0 483.04-72.48 483.04-162.08 0-71.36-138.72-132.16-330.72-153.44z" p-id="4250" fill="#d81e06"></path></svg>