<?xml version="1.0" standalone="no"?><!DOCTYPE svg PUBLIC "-//W3C//DTD SVG 1.1//EN" "http://www.w3.org/Graphics/SVG/1.1/DTD/svg11.dtd"><svg t="1590564547750" class="icon" viewBox="0 0 1024 1024" version="1.1" xmlns="http://www.w3.org/2000/svg" p-id="3132" xmlns:xlink="http://www.w3.org/1999/xlink" width="32" height="32"><defs><style type="text/css"></style></defs><path d="M302.545455 139.636364c0-47.709091-39.563636-87.272727-87.272728-87.272728h-69.818182C97.745455 52.363636 58.181818 91.927273 58.181818 139.636364v354.909091c2.327273 126.836364 72.145455 243.2 186.181818 316.50909V872.727273c0 60.509091 50.036364 110.545455 110.545455 110.545454h337.454545c60.509091 0 110.545455-50.036364 110.545455-110.545454v-58.181818-10.472728c109.381818-75.636364 174.545455-190.836364 174.545454-315.345454v-29.090909H302.545455V139.636364z m-186.181819 0c0-16.290909 12.8-29.090909 29.090909-29.090909h69.818182c16.290909 0 29.090909 12.8 29.090909 29.090909v320H116.363636V139.636364z m617.890909 377.018181h160.581819v1.163637h23.272727c-9.309091 98.909091-69.818182 189.672727-162.909091 247.854545l-18.618182 11.636364 6.981818 20.945454c1.163636 4.654545 2.327273 10.472727 2.327273 15.127273v58.181818c0 29.090909-23.272727 52.363636-52.363636 52.363637h-337.454546c-29.090909 0-52.363636-23.272727-52.363636-52.363637v-58.181818c0-3.490909 0-8.145455 1.163636-11.636363l4.654546-20.945455-18.618182-10.472727c-98.909091-58.181818-161.745455-151.272727-172.218182-253.672728h615.563636z" fill="#d81e06" p-id="3133"></path><path d="M180.363636 145.454545c-16.290909 0-29.090909 12.8-29.090909 29.09091v139.636363c0 16.290909 12.8 29.090909 29.090909 29.090909S209.454545 330.472727 209.454545 314.181818V174.545455c0-16.290909-12.8-29.090909-29.090909-29.09091zM357.236364 431.709091h593.454545c16.290909 0 29.090909-12.8 29.090909-29.090909s-12.8-29.090909-29.090909-29.090909h-593.454545c-16.290909 0-29.090909 12.8-29.090909 29.090909s12.8 29.090909 29.090909 29.090909z" fill="#d81e06" p-id="3134"></path></svg>