<?xml version="1.0" standalone="no"?><!DOCTYPE svg PUBLIC "-//W3C//DTD SVG 1.1//EN" "http://www.w3.org/Graphics/SVG/1.1/DTD/svg11.dtd"><svg t="1590564065526" class="icon" viewBox="0 0 1024 1024" version="1.1" xmlns="http://www.w3.org/2000/svg" p-id="2994" xmlns:xlink="http://www.w3.org/1999/xlink" width="32" height="32"><defs><style type="text/css"></style></defs><path d="M365.725997 985.234428c0 20.362219 65.041817 36.869091 145.255483 36.869091s145.26796-16.506872 145.26796-36.869091-65.02934-36.869091-145.26796-36.86909-145.255483 16.506872-145.255483 36.86909z m0 0" fill="#9B9B9B" p-id="2995"></path><path d="M904.987913 393.993957c0 217.633687-165.318257 356.837898-393.993956 585.46369C285.375085 753.838776 117 611.627644 117 393.993957S293.3977 0 510.993957 0s393.993957 176.3977 393.993956 393.993957z m0 0" fill="#2AD899" p-id="2996"></path><path d="M491.317965 210.185008h40.462423v431.611658h-40.462423zM360.298567 299.843649a39.751243 39.751243 0 1 0 39.80115-39.726289 39.751243 39.751243 0 0 0-39.80115 39.726289z m0 0M658.694902 578.963252h-47.174968l-47.212399-194.85096H705.907301z m0 0" fill="#FFFFFF" p-id="2997"></path><path d="M595.711765 299.843649a39.751243 39.751243 0 1 0 39.738766-39.726289 39.751243 39.751243 0 0 0-39.751243 39.751243z m0 0M423.331611 383.401111h-47.174968l-47.199922 195.362511h141.587289z m0 0" fill="#FFFFFF" p-id="2998"></path></svg>